<svg width="393" height="326" viewBox="0 0 393 326" fill="none" xmlns="http://www.w3.org/2000/svg">
<path d="M228.113 23.8979L309.825 0L158.622 24.3853C156.701 24.6952 156.309 27.2882 158.053 28.152L259.309 78.3096C260.869 79.0821 260.766 81.34 259.142 81.9673L-26.8063 192.474C-27.534 192.755 -28.0317 193.434 -28.0814 194.212L-35.9048 317.006C-35.9612 317.892 -35.4273 318.709 -34.5934 319.012L124.078 376.813C124.414 376.935 124.777 376.965 125.129 376.9L498.829 307.311C500.894 306.926 501.045 304.024 499.031 303.427L179.142 208.608C177.429 208.1 177.15 205.791 178.719 204.937C247.871 167.336 366.936 91.3287 320.971 70.4719C278.839 51.3547 243.969 35.1781 227.812 27.6156C226.145 26.8351 226.346 24.4148 228.113 23.8979Z" fill="#303030"/>
</svg>
